<svg width="250" height="250" viewBox="0 0 250 250" fill="none" xmlns="http://www.w3.org/2000/svg">
<rect width="250" height="250" rx="125" fill="#0A0A0A"/>
<path fill-rule="evenodd" clip-rule="evenodd" d="M123.053 23.521C126.931 21.285 131.708 21.2928 135.578 23.5415L213.591 68.8701C227.187 76.7697 227.194 96.4037 213.604 104.313L210.081 106.363L213.432 108.289C227.108 116.148 227.156 135.861 213.519 143.787L210.081 145.785L213.486 147.744C227.133 155.597 227.199 175.265 213.605 183.21L143.146 224.393C134.601 229.387 124.032 229.404 115.47 224.438L32.4353 176.271C28.5803 174.034 26.2075 169.915 26.2075 165.458V86.5895C26.2075 82.1214 28.5924 77.9931 32.4631 75.761L123.053 23.521ZM185.144 160.278L143.087 184.72C134.572 189.669 124.061 189.686 115.529 184.765L51.2075 147.664V158.258L128.015 202.813C128.793 203.265 129.754 203.263 130.531 202.809L194.291 165.542L185.144 160.278ZM51.2075 118.803L128.02 163.109C128.796 163.556 129.751 163.555 130.526 163.105L194.225 126.085L185.153 120.871L143.102 145.345C134.579 150.305 124.053 150.322 115.515 145.39L51.2075 108.245V118.803ZM63.7143 86.5985L128.019 123.742C128.795 124.19 129.752 124.189 130.527 123.738L194.341 86.5985L129.274 48.7926L63.7143 86.5985Z" fill="#A9E56A"/>
</svg>
