<svg width="144" height="48" viewBox="0 0 144 48" xmlns="http://www.w3.org/2000/svg">
<path fill-rule="evenodd" clip-rule="evenodd" d="M26.1761 2.35649C27.003 1.87961 28.0219 1.88128 28.8472 2.36086L45.486 12.0286C48.3858 13.7134 48.3873 17.901 45.4888 19.5879L44.7375 20.0251L45.4521 20.4358C48.3689 22.112 48.3792 26.3165 45.4706 28.0069L44.7375 28.433L45.4636 28.8508C48.3742 30.5258 48.3883 34.7206 45.489 36.4151L30.4615 45.1985C28.639 46.2637 26.3847 46.2674 24.5588 45.2082L6.84903 34.935C6.02683 34.4581 5.52075 33.5794 5.52075 32.6289V15.8078C5.52075 14.8548 6.02941 13.9743 6.85494 13.4983L26.1761 2.35649ZM39.4188 31.524L30.449 36.7371C28.6328 37.7926 26.3909 37.7962 24.5713 36.7467L10.8528 28.8338V31.0933L27.2343 40.596C27.4003 40.6923 27.6052 40.692 27.7709 40.5951L41.3698 32.6468L39.4188 31.524ZM10.8528 22.6784L27.2354 32.1279C27.4008 32.2233 27.6046 32.223 27.7697 32.1271L41.3556 24.2314L39.4207 23.1195L30.4521 28.3392C28.6344 29.3971 26.3894 29.4007 24.5682 28.3488L10.8528 20.4265V22.6784ZM13.5202 15.8097L27.2351 23.7317C27.4007 23.8273 27.6048 23.827 27.77 23.7308L41.3803 15.8097L27.5028 7.74644L13.5202 15.8097Z"/>
<path d="M73.3002 29.4728L73.8568 29.0707C74.5578 28.6584 75.0526 28.4522 75.3413 28.4522C75.9804 28.4522 76.6711 29.0295 77.4133 30.1841C77.8669 30.9057 78.0937 31.4829 78.0937 31.9159C78.0937 32.3489 77.9493 32.7097 77.6607 32.9983C77.3927 33.2869 77.0731 33.5447 76.702 33.7714C76.3309 33.9982 75.9701 34.2147 75.6196 34.4209C75.2897 34.6271 74.5991 34.8951 73.5476 35.225C72.4961 35.5548 71.4756 35.7198 70.486 35.7198C69.5169 35.7198 68.5273 35.5961 67.5171 35.3487C66.5275 35.0806 65.4966 34.6477 64.4245 34.0498C63.373 33.4313 62.4247 32.689 61.5794 31.8231C60.7341 30.9366 60.0331 29.813 59.4764 28.4522C58.9404 27.0709 58.6723 25.5761 58.6723 23.968C58.6723 22.3599 58.9404 20.9064 59.4764 19.6075C60.0125 18.288 60.6928 17.2056 61.5175 16.3603C62.3628 15.4944 63.3215 14.7728 64.3936 14.1955C66.4141 13.0822 68.4449 12.5255 70.486 12.5255C71.455 12.5255 72.4343 12.6801 73.4239 12.9894C74.4341 13.278 75.197 13.577 75.7124 13.8862L76.4546 14.3192C76.8257 14.546 77.1144 14.7315 77.3205 14.8759C77.8566 15.3088 78.1246 15.8036 78.1246 16.3603C78.1246 16.8963 77.9081 17.4633 77.4752 18.0612C76.6711 19.1745 75.9495 19.7312 75.3104 19.7312C74.9392 19.7312 74.4135 19.5044 73.7331 19.0508C72.8672 18.3498 71.7127 17.9994 70.2695 17.9994C68.9294 17.9994 67.6099 18.4632 66.311 19.391C65.6925 19.8446 65.177 20.4837 64.7647 21.3084C64.3524 22.1331 64.1462 23.0712 64.1462 24.1226C64.1462 25.1535 64.3524 26.0813 64.7647 26.9059C65.177 27.7306 65.7028 28.3801 66.3419 28.8543C67.5995 29.7614 68.9087 30.215 70.2695 30.215C70.9086 30.215 71.5065 30.1325 72.0632 29.9676C72.6404 29.8027 73.0528 29.6377 73.3002 29.4728Z"/>
<path d="M79.6619 27.2771C79.6619 24.803 80.5279 22.7619 82.2597 21.1538C83.9915 19.5456 85.9708 18.7416 88.1974 18.7416C90.4241 18.7416 92.393 19.5456 94.1042 21.1538C95.8154 22.7413 96.6711 24.7721 96.6711 27.2461C96.6711 28.9573 96.2278 30.483 95.3413 31.8231C94.4547 33.1426 93.3723 34.1219 92.0941 34.7611C90.8364 35.3796 89.5272 35.6888 88.1665 35.6888C86.8058 35.6888 85.4863 35.359 84.208 34.6992C82.9297 34.0189 81.8473 33.0292 80.9608 31.7304C80.0949 30.4109 79.6619 28.9264 79.6619 27.2771ZM86.1254 29.5037C86.7851 29.9985 87.4552 30.2459 88.1356 30.2459C88.8159 30.2459 89.4963 29.9882 90.1767 29.4728C90.857 28.9573 91.1972 28.1945 91.1972 27.1843C91.1972 26.174 90.8776 25.4215 90.2385 24.9267C89.5994 24.4319 88.9087 24.1845 88.1665 24.1845C87.4243 24.1845 86.7336 24.4422 86.0945 24.9576C85.4553 25.4731 85.1358 26.2359 85.1358 27.2461C85.1358 28.2358 85.4657 28.9883 86.1254 29.5037Z"/>
<path d="M104.359 29.9367C105.04 29.9367 105.545 30.1119 105.875 30.4624C106.205 30.8129 106.37 31.5345 106.37 32.6272C106.37 33.7199 106.194 34.4518 105.844 34.8229C105.493 35.1734 104.988 35.3487 104.329 35.3487C102.246 35.3487 100.782 34.8538 99.9371 33.8642C99.0918 32.854 98.6691 31.184 98.6691 28.8543V14.1027C98.6691 13.6285 98.6795 13.278 98.7001 13.0512C98.7413 12.8038 98.8341 12.5255 98.9784 12.2162C99.267 11.6802 100.071 11.4122 101.391 11.4122C102.648 11.4122 103.432 11.7008 103.741 12.2781C103.906 12.5667 103.999 12.8348 104.019 13.0822C104.061 13.309 104.081 13.6594 104.081 14.1336V28.978C104.081 29.6171 104.174 29.9367 104.359 29.9367ZM112.431 28.978C112.431 29.3697 112.514 29.6274 112.678 29.7511C112.843 29.8748 113.266 29.9367 113.946 29.9367C114.627 29.9367 115.194 30.1119 115.647 30.4624C116.101 30.8129 116.328 31.5345 116.328 32.6272C116.328 33.7199 116.08 34.4518 115.585 34.8229C115.111 35.1734 114.441 35.3487 113.575 35.3487C109.204 35.3487 107.019 33.1839 107.019 28.8543L106.988 14.1027C106.988 13.6285 106.998 13.278 107.019 13.0512C107.06 12.8038 107.163 12.5255 107.328 12.2162C107.638 11.6802 108.442 11.4122 109.741 11.4122C110.998 11.4122 111.782 11.7008 112.091 12.2781C112.318 12.7317 112.431 13.3502 112.431 14.1336V28.978Z"/>
<path d="M122.821 13.3914C123.172 13.7419 123.347 14.3398 123.347 15.1851V15.6799C123.347 16.1954 123.326 16.5768 123.285 16.8242C123.141 18.6385 122.605 20.1951 121.677 21.494C120.749 22.7928 119.574 23.4423 118.152 23.4423C118.007 23.4423 117.873 23.3392 117.75 23.133C117.646 22.9062 117.595 22.6176 117.595 22.2671C117.595 21.9166 117.636 21.6486 117.719 21.463C117.822 21.2569 117.925 21.1435 118.028 21.1228C118.152 21.0816 118.244 21.061 118.306 21.061C118.368 21.0404 118.481 20.9888 118.646 20.9064C118.811 20.8033 118.956 20.6693 119.079 20.5043C119.409 20.0714 119.595 19.4013 119.636 18.4942C118.935 18.3911 118.409 18.1643 118.059 17.8138C117.729 17.4633 117.564 16.7211 117.564 15.5871C117.564 14.7625 117.667 14.1543 117.873 13.7625C118.079 13.3502 118.389 13.0822 118.801 12.9585C119.234 12.8141 119.894 12.742 120.78 12.742C121.667 12.742 122.347 12.9585 122.821 13.3914Z"/>
<path d="M125.49 33.957C125.099 33.7096 124.903 33.3179 124.903 32.7818C124.903 32.2458 125.295 31.4314 126.078 30.3387C126.305 29.9882 126.666 29.813 127.16 29.813C127.676 29.813 128.366 30.0707 129.232 30.5861C130.098 31.0809 130.882 31.3283 131.583 31.3283C132.84 31.3283 133.469 31.0809 133.469 30.5861C133.469 30.1944 132.779 29.9057 131.397 29.7202C130.098 29.5346 128.81 29.0501 127.531 28.2667C126.934 27.8956 126.439 27.3183 126.047 26.5348C125.655 25.7308 125.459 24.7824 125.459 23.6897C125.459 20.4322 127.696 18.8034 132.17 18.8034C133.634 18.8034 135.139 19.1539 136.686 19.8549C137.407 20.1848 137.768 20.5971 137.768 21.0919C137.768 21.5867 137.541 22.1949 137.088 22.9165C136.634 23.6381 136.17 23.9989 135.696 23.9989C135.448 23.9989 134.985 23.8443 134.304 23.535C133.644 23.2258 132.923 23.0712 132.139 23.0712C130.923 23.0712 130.315 23.298 130.315 23.7515C130.315 24.37 131.016 24.7721 132.418 24.9576C133.778 25.1019 135.098 25.4937 136.376 26.1328C136.974 26.4214 137.469 26.9266 137.861 27.6482C138.273 28.3491 138.479 29.2357 138.479 30.3078C138.479 31.3799 138.273 32.2973 137.861 33.0602C137.469 33.8024 136.912 34.359 136.191 34.7301C134.871 35.3693 133.212 35.6888 131.212 35.6888C129.232 35.6888 127.325 35.1116 125.49 33.957Z"/>
</svg>
